<svg width="400" height="463" viewBox="0 0 758 639" fill="none" xmlns="http://www.w3.org/2000/svg">
  <path d="M361.886 86L361 84.5852C361.243 84.3074 385.821 56.8776 421.335 42.9672C454.15 30.1096 503.287 26.4721 551 82.1285L550.097 83.525C502.869 28.4353 454.245 32.018 421.768 44.722C386.519 58.5155 362.129 85.7258 361.886 86Z" fill="#DADADA"/>
  <path d="M738.656 446.752C733.545 372.623 712.444 316.358 657.765 275.089C641.638 262.921 621.45 256.974 611.781 235.597C602.184 214.376 605.747 187.275 603.847 162.486C598.965 98.886 554.327 49.7048 507.621 42.9766C460.917 36.2446 414.452 65.045 378.977 106.95C352.355 138.389 329.038 178.526 295.499 193.248C266.496 205.983 236.153 197.145 205.667 188.307C178.016 180.291 150.247 172.275 123.252 180.35C92.709 189.491 67.0882 218.606 48.3767 252.717C17.0664 309.804 9.26142 381.982 18.8373 452.026C24.0758 490.341 36.8904 529.174 55.2586 559L713.36 557.127C732.602 530.929 740.846 478.535 738.656 446.752Z" fill="#F6F5F5"/>
  <path d="M319 90.5C319 128.885 296.165 160 268 160C239.833 160 217 128.885 217 90.5C217 52.1184 239.833 21 268 21C296.165 21 319 52.1184 319 90.5Z" fill="#F6F5F5"/>
  <path d="M396 639C206.559 639 53 597.583 53 546.5C53 495.413 206.559 454 396 454C585.423 454 739 495.413 739 546.5C739 597.583 585.423 639 396 639Z" fill="#F6F5F5"/>
  <path d="M374 29C374 45.0168 364.374 58 352.5 58C340.628 58 331 45.0168 331 29C331 12.9833 340.628 3.8147e-06 352.5 3.8147e-06C364.374 3.8147e-06 374 12.9833 374 29Z" fill="#F6F5F5"/>
  <path d="M697 229.5C697 245.241 687.598 258 676 258C664.402 258 655 245.241 655 229.5C655 213.759 664.402 201 676 201C687.598 201 697 213.759 697 229.5Z" fill="#F6F5F5"/>
  <path d="M737.309 559L736.102 558.118C760.712 494.317 763.318 425.733 743.252 369.953C722.155 311.31 679.092 271.854 622 258.854L622.225 257C679.763 270.097 723.178 309.918 744.478 369.119C764.744 425.446 762.13 494.656 737.309 559Z" fill="#DADADA"/>
  <path d="M60.2293 561C30.3283 517.352 10.5986 464.784 3.1734 408.982C-3.74053 357.02 0.727246 305.462 15.7538 263.805C38.9684 199.448 83.8954 166.286 139 172.809L138.88 174.674C84.3654 168.217 39.9431 201.002 16.9938 264.626C2.09498 305.928 -2.33081 357.076 4.53185 408.649C11.9099 464.099 31.5197 516.342 61.24 559.731L60.2293 561Z" fill="#DADADA"/>
  <path d="M78 559H255V424H78V559Z" fill="#2A6F2C"/>
  <path d="M141 559H78V424H141V559Z" fill="#4CAF50"/>
  <path d="M176 457H191V424H176V457Z" fill="#4CAF50"/>
  <path d="M219 559H512V275H219V559Z" fill="#102048"/>
  <path d="M541 175H486V107.615C486 94.021 494.21 83 504.338 83C509.4 83 513.99 85.759 517.304 90.2112C520.576 94.604 522.634 100.686 522.676 107.389V107.615L522.662 150.385C522.662 150.593 522.662 150.815 522.676 151.023V152.319L522.731 152.282C523.445 164.993 531.348 175 541 175Z" fill="#2A6F2C"/>
  <path d="M558 136V150.707C558 157.418 556.047 163.502 552.864 167.878C549.704 172.29 545.317 175 540.475 175C531.243 175 523.683 165.116 523 152.562L558 136Z" fill="#EFBC73"/>
  <path d="M505 83C504.614 83 504.244 83.0185 503.871 83.0555C503.624 83.0741 503.39 83.0926 503.159 83.1333C502.895 83.1703 502.647 83.2074 502.386 83.2629C502.237 83.2815 502.084 83.3185 501.935 83.3555C501.742 83.3926 501.548 83.4482 501.369 83.5037C501.094 83.5815 500.833 83.6556 500.558 83.7482C500.172 83.8815 499.789 84.0297 499.402 84.2186C499.209 84.2926 499.019 84.3852 498.839 84.4778C498.66 84.5556 498.467 84.6667 498.29 84.7593C498.029 84.8926 497.779 85.0408 497.531 85.2112C497.314 85.3408 497.093 85.4704 496.873 85.6408C496.819 85.6779 496.748 85.7149 496.68 85.7704C496.487 85.9038 496.294 86.0519 496.103 86.2038C495.347 86.7816 494.618 87.4371 493.944 88.1705C493.751 88.3742 493.544 88.6002 493.367 88.8039C493.147 89.0483 492.954 89.2928 492.747 89.5558C492.54 89.8187 492.347 90.078 492.154 90.341C491.618 91.0891 491.109 91.8781 490.642 92.7188C490.435 93.0929 490.245 93.4485 490.051 93.8262C489.445 95.0781 488.923 96.3893 488.468 97.7745C488.36 98.1116 488.264 98.4671 488.153 98.8227C487.865 99.8931 487.617 100.997 487.424 102.119C487.37 102.515 487.315 102.889 487.261 103.264C487.163 104.03 487.081 104.819 487.041 105.604V450H246V121.279C246 100.134 258.583 83 274.111 83H505Z" fill="#2A6F2C"/>
  <path d="M457 132H274V119H457V132Z" fill="#FCFCF9"/>
  <path d="M442 170H274V157H442V170Z" fill="#FCFCF9"/>
  <path d="M433 209H274V195H433V209Z" fill="#FCFCF9"/>
  <path d="M457 247H274V233H457V247Z" fill="#FCFCF9"/>
  <path d="M443 286H344V272H443V286Z" fill="#FCFCF9"/>
  <path d="M364.531 346C363.445 346 362.447 345.492 361.762 344.193C360.921 342.59 360.981 340.396 361.018 338.945L361.946 305L363.307 305.07L362.383 339.012C362.339 340.593 362.345 342.096 362.865 343.09C364.025 345.291 366.812 343.387 367.36 342.983C370.105 340.957 372.076 337.142 373.982 333.453C376.101 329.356 378.293 325.114 381.607 323.121C383.575 321.937 385.02 323.674 386.182 325.062C386.843 325.849 387.466 326.591 388.126 326.862C389.86 327.563 391.586 326.947 393.411 326.29C395.023 325.712 396.698 325.103 398.415 325.47C399.985 325.801 401.252 326.662 402.481 327.497C404.291 328.725 405.86 329.79 408.122 329.033C411.244 327.998 414.145 325.552 416.949 323.188C417.764 322.501 418.575 321.815 419.392 321.162C422.547 318.642 427.284 315.462 432 316.95L431.695 318.779C427.443 317.44 423.03 320.42 420.077 322.783C419.271 323.433 418.467 324.108 417.664 324.787C414.768 327.229 411.773 329.753 408.443 330.859C405.695 331.768 403.751 330.454 401.875 329.178C400.742 328.406 399.572 327.612 398.21 327.326C396.768 327.025 395.307 327.549 393.756 328.105C391.828 328.799 389.844 329.515 387.738 328.658C386.797 328.276 386.031 327.363 385.29 326.48C384.074 325.029 383.273 324.175 382.152 324.839C379.186 326.624 377.196 330.469 375.093 334.544C373.095 338.403 371.029 342.4 368.004 344.634C366.928 345.432 365.68 346 364.531 346Z" fill="#102048"/>
  <path d="M277.748 450H246V273L320.971 358.118C324.353 361.973 328.599 363.873 332.96 363.873C333.926 363.873 334.899 363.78 335.868 363.592C337.16 363.344 338.482 363.222 339.806 363.222C340.069 363.222 340.331 363.23 340.591 363.237L391.694 365.2C393.46 365.273 395.215 365.573 396.926 366.079C398.31 366.489 399.71 366.693 401.105 366.693C405.043 366.693 408.912 365.055 412.138 361.799L486 287.181V302.589L403.759 390.697C399.848 388.058 395.512 386.654 391.082 386.654H339.957C332.851 386.654 326.002 390.265 320.74 396.777L277.748 450Z" fill="#EFBC73"/>
  <path d="M330 392.737L327.973 395.776L236.35 533.028L219 559V275L330 392.737Z" fill="#CCFF90"/>
  <path d="M512 275L403 392.738L512 559V275Z" fill="#CCFF90"/>
  <path d="M328 395.907L236.354 532.849L219 538V487.65C264.809 443.406 316.203 392.104 327.945 391L328 395.907Z" fill="#CCFF90"/>
  <path d="M405 395.907L494.965 532.849L512 538V487.65C467.032 443.406 416.58 392.104 405.057 391L405 395.907Z" fill="#CCFF90"/>
  <path d="M512.71 559H219L219.054 521.903L320.263 398.094C325.573 391.601 332.485 388 339.657 388H391.252C398.314 388 405.133 391.494 410.416 397.814L513 520.62L512.71 559Z" fill="#CCFF90"/>
  <path d="M512.041 555L512.29 521.25L512 520.901V427C530.213 437.499 543 462.205 543 491.013C543 519.799 530.232 544.49 512.041 555Z" fill="#B8B2D8"/>
  <path d="M513 488C495.985 471.705 478.188 454.423 462 439.168C470.619 429.692 481.655 424 493.689 424C500.536 424 507.061 425.843 513 429.179V488Z" fill="#CCFF90"/>
  <path d="M512 520L453 448.823C455.283 444.835 457.883 441.209 460.753 438C477.019 453.586 494.902 471.244 512 487.893V520Z" fill="#CCFF90"/>
  <path d="M492.981 559C464.825 559 442 528.204 442 490.219C442 474.305 446.008 459.654 452.732 448L512.707 519.841L513 520.187L512.749 553.637C506.669 557.092 499.989 559 492.981 559Z" fill="#CCFF90"/>
  <path d="M558 491.002C558 528.555 535.838 559 508.499 559C481.162 559 459 528.555 459 491.002C459 453.445 481.162 423 508.499 423C535.838 423 558 453.445 558 491.002Z" fill="#1B5E20"/>
  <path d="M506.932 528C504.568 528 502.303 526.642 500.681 524.189L483.061 497.516C481.542 495.218 481.669 491.67 483.347 489.587C485.024 487.507 487.612 487.681 489.129 489.979L506.751 516.656C506.786 516.708 506.851 516.796 506.989 516.767C507.129 516.737 507.164 516.623 507.186 516.556L526.155 457.356C527.065 454.518 529.475 453.23 531.551 454.474C533.621 455.721 534.563 459.032 533.653 461.87L514.684 521.07C513.526 524.681 511.14 527.216 508.303 527.845C507.844 527.948 507.386 528 506.932 528Z" fill="white"/>
  <path d="M160 386.04L161.596 424H204L184.85 402.353L183.71 386.04L176.187 376L160 386.04Z" fill="#102048"/>
  <path d="M107.863 369.201L101 403.021L136 424L125.706 392.06L128.222 377.658L119.529 362L107.863 369.201Z" fill="#102048"/>
  <path d="M122.522 201C122.522 201 118.43 224.448 119.794 276.026C119.794 276.026 107.744 333.858 109.108 368.557L129.342 377C139.943 344.612 148.662 313.452 153.298 284.955C155.61 274.88 155.566 264.062 153.172 254.024L143.439 213.193L122.522 201Z" fill="#363E44"/>
  <path d="M185.969 277.475L182.756 386H159.058C152.878 350.657 150.58 320.484 149.774 300.265C149.104 283.224 149.486 273.269 149.486 273.269C134.254 248.561 125.201 230.71 119.937 217.503C112.115 197.905 112.593 188.474 113.469 181.823C114.645 172.971 118.829 161.511 121.66 154.466C123.246 150.557 124.408 148 124.408 148L164.063 165.55L159.332 189.054L159.25 189.452C158.539 192.982 158.894 196.779 160.221 199.953L181.019 249.724C184.533 258.141 186.256 267.762 185.969 277.475Z" fill="#363E44"/>
  <path d="M174.534 387L174.502 386.996C174.224 386.974 174.013 386.635 174.031 386.249C174.08 385.159 178.884 277.144 173.18 259.951C172.178 256.935 170.479 253.077 168.512 248.618C160.279 229.941 146.499 198.689 149.392 153.644C149.417 153.257 149.656 152.963 149.94 153.004C150.217 153.041 150.421 153.383 150.396 153.77C147.533 198.346 161.202 229.35 169.369 247.874C171.354 252.374 173.067 256.261 174.095 259.36C179.905 276.876 175.239 381.878 175.037 386.338C175.02 386.714 174.798 387 174.534 387Z" fill="#363E44"/>
  <path d="M159.663 188C156.198 186.129 152.917 184.074 149.831 181.916C149.5 178.661 149.261 175.307 149.129 171.85C153.939 174.256 158.437 176.109 162 176.918L159.663 188ZM148.715 181.125C136.149 172.091 126.961 161.457 122 155C128.877 160.126 138.952 166.642 148.081 171.317C148.196 174.679 148.412 177.951 148.715 181.125Z" fill="#363E44"/>
  <path d="M150 183C149.786 182.727 149.573 182.455 149.362 182.179C149.189 178.885 149.066 175.489 149 172C149.201 172.188 149.4 172.372 149.599 172.553C149.674 176.141 149.811 179.622 150 183Z" fill="#363E44"/>
  <path d="M171.402 403L171 393.336L184.025 393C184.363 393.008 184.54 393.313 184.546 393.71C184.551 394.11 184.326 394.438 184.044 394.446L172.083 394.755L172.363 401.489L184.466 400.718C184.739 400.699 184.988 401.008 184.999 401.409C185.012 401.81 184.794 402.145 184.512 402.164L171.402 403Z" fill="white"/>
  <path d="M126.228 392C126.173 392 126.116 391.989 126.062 391.966L114 387.019L117.009 378L127.637 382.936C127.923 383.07 128.07 383.473 127.967 383.841C127.864 384.206 127.548 384.404 127.264 384.266L117.61 379.781L115.488 386.147L126.395 390.622C126.685 390.741 126.845 391.136 126.752 391.508C126.677 391.81 126.461 392 126.228 392Z" fill="white"/>
  <path d="M179 61.69L178.245 65.467L175.224 80.7491L173.182 91L155 82.2658L163.769 58.2681L168.049 50L179 61.69Z" fill="#F9B384"/>
  <path d="M178 65.2695L175.134 81C170.052 72.992 171.087 63 171.087 63L178 65.2695Z" fill="#102048"/>
  <path d="M193 39.788C193 39.788 191.836 75.9049 178.802 72.8121C165.767 69.7232 166 38.6489 166 38.6489L182.991 31L193 39.788Z" fill="#F9B384"/>
  <path d="M174.6 45.0959C174.6 45.0959 182.012 34.7377 192.54 39.8593C192.54 39.8593 197.183 42.5165 199 37.3578C199 37.3578 184.118 10.6143 172.437 23.5184C172.437 23.5184 151.498 29.7311 163.958 58L174.6 45.0959Z" fill="#102048"/>
  <path d="M177.942 45.6033C178.29 49.1588 177.03 52.4402 175.129 52.9375C173.228 53.4309 171.405 50.9483 171.058 47.3967C170.71 43.8412 171.97 40.5598 173.871 40.0625C175.772 39.5691 177.595 42.0517 177.942 45.6033Z" fill="#F9B384"/>
  <path d="M193 57.5C193 59.4306 191.881 61 190.5 61C189.119 61 188 59.4306 188 57.5C188 55.5652 189.119 54 190.5 54C191.881 54 193 55.5652 193 57.5Z" fill="#F9B384"/>
  <path d="M181.5 60C179.567 60 178 57.7613 178 55C178 52.2386 179.567 50 181.5 50C183.433 50 185 52.2386 185 55C185 57.7613 183.433 60 181.5 60Z" fill="#F39176"/>
  <path d="M256.588 110.242C256.588 110.242 259.098 114.752 253.977 119.258C253.977 119.258 258.048 122.906 244.014 128.919C242.453 129.587 240.673 130.275 238.631 131L233 104.229C233 104.229 258.048 93.1513 258.674 96.7017C259.303 100.256 254.196 105.049 254.196 105.049C254.196 105.049 263.169 102.163 256.588 110.242Z" fill="#F9B384"/>
  <path d="M233.647 104.722L205.482 109.617C205.482 109.617 164.961 70.4997 156.649 74.2539C148.337 78.0082 120.285 139.03 120.285 139.03C120.285 139.03 112.665 142.317 113.011 146.543C113.358 150.768 162.537 185.344 169.117 176.584C173.255 171.073 178.006 127.14 178.006 127.14L195.928 137.244C201.241 140.237 207.111 140.917 212.722 139.183L239 131.058L233.647 104.722Z" fill="#F3E594"/>
  <path d="M227 106.055L227.314 106L227 106.055" fill="#FDFDFD"/>
  <path d="M231.98 133C231.682 131.401 231.384 129.805 231.087 128.214C230.111 123.002 229.16 117.918 228.294 113.026C228.051 111.657 227.829 110.254 227.606 108.847C227.412 107.629 227.211 106.403 227 105.185L227.314 105.128L228.044 105C228.246 106.18 228.441 107.365 228.628 108.545C228.849 109.941 229.07 111.329 229.31 112.69C230.175 117.574 231.126 122.655 232.1 127.859C232.4 129.462 232.7 131.073 233 132.683L231.98 133Z" fill="#FEF3D9"/>
  <path d="M165.227 95C162.739 95 160.244 94.752 157.761 94.1721C153.412 93.1535 149.408 91.0553 146 88.1331C146.223 87.7477 146.442 87.3777 146.663 87C149.931 89.7735 153.767 91.7687 157.935 92.7454C160.356 93.3138 162.793 93.5541 165.227 93.5541C171.059 93.5541 176.876 92.1693 182.42 90.5708C182.851 90.4488 183.282 90.3152 183.713 90.1893C184.144 90.5518 184.572 90.918 185 91.2842C184.211 91.5208 183.423 91.7611 182.634 91.99C177.03 93.6037 171.148 95 165.227 95Z" fill="#FEF3D9"/>
  <path d="M167.986 160C167.212 160 166.437 159.962 165.664 159.864C158.402 158.939 152.036 152.85 147.879 148.352C146.435 146.788 145.021 145.164 143.607 143.54C140.066 139.476 136.405 135.272 132.328 132.175C129.889 130.32 127.416 129.013 125 128.258C125.198 127.839 125.391 127.434 125.598 127C127.994 127.801 130.434 129.096 132.837 130.921C137.003 134.09 140.703 138.335 144.281 142.444C145.688 144.061 147.094 145.674 148.531 147.23C152.583 151.615 158.777 157.549 165.761 158.436C166.497 158.531 167.24 158.569 167.985 158.569C169.647 158.569 171.319 158.38 172.953 158.195C173.302 158.157 173.651 158.134 174 158.096C173.919 158.587 173.838 159.071 173.756 159.554C173.518 159.581 173.279 159.596 173.04 159.622C171.383 159.811 169.686 160 167.986 160Z" fill="#FEF3D9"/>
  <path d="M178 127.348L171 123C171 123 172.787 138.751 176.163 141L178 127.348Z" fill="#E49B31"/>
  <path d="M244 128.901C242.441 129.575 240.664 130.269 238.624 131L233 104L244 128.901Z" fill="#E28B6D"/>
  <path d="M562 287.561L578.617 298L591 240.965L574.78 235C570.493 248.409 566.123 265.567 562 287.561Z" fill="#E28B6D"/>
  <path d="M575 235.951L591.726 242L606 188.04C606 188.04 588.749 184.831 575 235.951Z" fill="#F3E594"/>
  <path d="M554.247 268L542 313.38L587.756 337L597 289.757L554.247 268Z" fill="#102048"/>
  <path d="M569.644 329.236C569.297 330.527 566.43 332.069 564.59 329.959C561.006 329.14 558.587 328.554 556.352 325.362C554.343 324.364 553.442 321.543 554.36 319.163C556.119 314.606 558.845 308.184 560.14 308.436C561.767 308.755 560.59 315.243 560.59 315.243C560.59 315.243 563.299 307.012 565.873 308.099C567.018 308.588 564.26 316.423 563.982 317.249C564.415 316.5 567.856 310.52 569.173 311.777C570.49 313.049 567.282 320.119 566.941 320.868C567.314 320.267 570.335 315.562 571.808 317.12C572.445 317.806 571.443 322.585 569.644 329.236Z" fill="#E28B6D"/>
  <path d="M656 485C656 485 677.099 481.818 686 455L662.596 456.819L656 485Z" fill="#102048"/>
  <path d="M679.921 455L658 472.906L667.862 492L689 473.014L679.921 455Z" fill="#E28B6D"/>
  <path d="M701 499.825L688.105 473L668 491.931L671.426 498.885L669.385 536L701 499.825Z" fill="#102048"/>
  <path d="M671.065 500L671 497.826L680.932 497L681 499.174L671.065 500Z" fill="white"/>
  <path d="M620.168 505.905L596 504V530L622 527.808L620.168 505.905Z" fill="#E28B6D"/>
  <path d="M597.45 528.633V535.974L580 565H625L622.395 526L597.45 528.633Z" fill="#102048"/>
  <path d="M606.28 547L596 537.062L596.72 535L607 544.938L606.28 547Z" fill="white"/>
  <path d="M618.537 343.438C618.176 355.066 618.107 367.335 618.259 379.697C618.399 390.427 618.691 401.235 619.109 411.798C621.112 464.267 625.742 510.734 625.742 510.734L589.573 517C572.421 355.667 583.55 287.496 583.55 287.496L599.313 283.162L613.306 279.315L629 275C628.805 275.397 628.609 275.809 628.428 276.239C626.037 281.511 624.144 288.527 622.683 296.857C620.388 309.82 619.109 325.915 618.537 343.438Z" fill="#363E44"/>
  <path d="M619 411C603.145 367.543 609.093 333 609.093 333L618.402 342.659C618.025 354.283 617.953 366.549 618.111 378.908C618.258 389.635 618.563 400.44 619 411Z" fill="#363E44"/>
  <path d="M686 454.19C669.072 463.06 655.189 485 655.189 485C640.577 449.393 628.103 413.634 618.554 378.529C610.604 349.325 604.687 320.572 601.259 292.749C600.841 289.292 600.447 285.858 600.11 282.442C600.067 282.124 600.027 281.788 600 281.471L613.733 278.612L628.454 275.551L635.89 274C636.691 280.537 637.759 287.372 639.045 294.411C651.859 364.695 686 454.19 686 454.19Z" fill="#363E44"/>
  <path d="M656 365C655.997 365 655.997 364.996 655.997 364.996C655.779 364.242 655.566 363.495 655.351 362.737C655.566 363.491 655.782 364.246 656 365ZM641.428 307.082C641.283 306.388 641.14 305.698 641 305.004C641 305.004 641 305.004 641 305C641.143 305.694 641.283 306.384 641.428 307.082Z" fill="#FDFDFD"/>
  <path d="M656 364C652.573 361.225 649.258 358.16 646.431 354.35C639.486 344.979 635.974 331.096 637.263 318.119C637.714 313.585 638.767 309.148 640.296 305C640.442 305.683 640.592 306.362 640.744 307.044C639.542 310.639 638.71 314.434 638.327 318.304C637.074 330.862 640.473 344.296 647.199 353.367C649.605 356.613 652.4 359.318 655.323 361.778C655.549 362.523 655.771 363.258 656 364Z" fill="#D8E1FB"/>
  <path d="M636.537 439C636.359 438.502 636.178 438.008 636 437.511C638.488 432.401 641.913 428.234 646.329 425.898C650.673 423.599 655.628 423.216 660.422 422.849C665.171 422.481 669.746 422.117 673.565 420C673.71 420.423 673.855 420.839 674 421.255C669.948 423.51 665.166 423.892 660.479 424.252C655.771 424.616 650.898 424.991 646.704 427.209C642.302 429.541 638.937 433.797 636.537 439Z" fill="#D8E1FB"/>
  <path d="M620 449C611.877 436.655 602.692 423.493 591.353 415.642C587.985 413.31 584.522 411.589 581.067 410.46C581.043 409.971 581.022 409.485 581 409C584.635 410.151 588.276 411.949 591.814 414.399C602.897 422.07 611.899 434.669 619.86 446.702C619.906 447.47 619.951 448.239 620 449Z" fill="#D8E1FB"/>
  <path d="M619.861 490C618.133 490 616.444 489.727 614.929 489.273C612.119 488.428 609.404 487.048 606.775 485.717C604.054 484.336 601.24 482.91 598.356 482.104C596.537 481.593 594.679 481.348 592.815 481.348C590.568 481.348 588.317 481.707 586.13 482.395C586.086 481.948 586.041 481.494 586 481.047C588.231 480.358 590.523 480 592.813 480C594.751 480 596.686 480.259 598.58 480.788C601.544 481.618 604.4 483.066 607.162 484.468C609.753 485.777 612.435 487.14 615.169 487.96C616.615 488.396 618.23 488.659 619.875 488.659C621.216 488.659 622.579 488.485 623.884 488.084C623.923 488.538 623.961 488.985 624 489.425C622.645 489.826 621.241 490 619.861 490Z" fill="#D8E1FB"/>
  <path d="M580.064 384C580.049 383.462 580.032 382.912 580.02 382.374C580.017 382.311 580.017 382.252 580.015 382.192C585.77 375.8 589.268 366.131 588.866 356.302C588.508 347.594 585.112 339.413 580 333.771C580.015 333.173 580.032 332.583 580.052 332C585.755 337.902 589.58 346.766 589.967 356.228C590.404 366.87 586.472 377.348 580.064 384Z" fill="#D8E1FB"/>
  <path d="M600.775 293C590.775 290.393 584 287.147 584 287.147L599.607 282.934C599.95 286.27 600.35 289.624 600.775 293ZM613.462 279.194L629 275C628.807 275.386 628.613 275.786 628.433 276.205L613.462 279.194Z" fill="#F3E594"/>
  <path d="M623.808 296C623.287 296 622.768 295.996 622.249 295.985C614.564 295.798 607.276 294.367 601.225 292.675C600.819 289.232 600.435 285.811 600.107 282.409C600.065 282.092 600.026 281.758 600 281.441L613.365 278.594L627.693 275.545L634.929 274C635.709 280.511 636.749 287.319 638 294.33C633.282 295.533 628.485 296 623.808 296Z" fill="#F3E594"/>
  <path d="M618.299 380C618.01 380 617.741 379.759 617.639 379.368L607.511 340.733L595.337 330.764C595.007 330.493 594.901 329.906 595.101 329.459C595.301 329.007 595.733 328.868 596.063 329.135L608.665 339.454L618.959 378.732C619.089 379.225 618.901 379.771 618.534 379.947C618.457 379.985 618.376 380 618.299 380Z" fill="#363E44"/>
  <path d="M641 281.792C618.176 293.898 579 287.095 579 287.095C580.595 263.965 580.703 195.551 606.254 187L617.673 188.673C623.655 191.939 628.328 204.406 631.843 219.211C633.955 228.029 635.645 237.685 636.982 246.728C639.787 265.637 641 281.792 641 281.792Z" fill="#F3E594"/>
  <path d="M637 247C626.259 238.395 624 219 624 219L631.866 219.846C633.977 228.547 635.665 238.076 637 247Z" fill="#F3E594"/>
  <path d="M618.52 189.003L617 219.575L640.287 237L645 205.326C624.525 188.38 618.52 189.003 618.52 189.003Z" fill="#F3E594"/>
  <path d="M662.877 231.104C662.317 232.268 661.685 233.353 660.973 234.346C659.686 236.18 658.166 237.681 656.467 238.804C653.961 240.471 651.219 241.183 648.507 240.96C646.234 240.771 644.002 239.912 641.932 238.411L640 237.007L644.782 205.7C646.055 206.749 647.386 207.834 648.794 209.016C648.794 209.016 667.453 172.952 668.824 173.663C670.057 174.282 667.96 179.862 667.535 180.97C668.345 179.34 674.4 167.197 676.015 168.042C677.302 168.698 675.673 174.093 675.468 174.749C675.836 174.019 679.084 167.479 681.043 169.054C681.948 169.784 678.453 176.865 678.112 177.576C678.537 177.016 682.411 171.881 683.371 173.419C684.357 174.975 680.591 181.1 680.165 181.793C680.55 181.326 683.864 177.372 684.92 179.284C686.302 181.737 669.344 217.616 662.877 231.104Z" fill="#E28B6D"/>
  <path d="M649.096 241C648.784 241 648.476 240.986 648.167 240.961C648.051 240.307 648 239.636 648 238.947C648 234.009 650.873 230 654.409 230C656.803 230 658.897 231.83 660 234.554C658.778 236.331 657.336 237.784 655.723 238.872C655.499 239.022 655.276 239.166 655.049 239.302C653.146 240.437 651.122 241 649.096 241Z" fill="#E67968"/>
  <path d="M603.757 281C593.599 281 584.5 279.957 580.035 279.346C579.731 279.303 579.549 279.276 579.497 279.272C579.218 279.255 578.995 278.879 579 278.43C579.006 277.98 579.231 277.618 579.511 277.618C579.546 277.618 579.756 277.644 580.122 277.697C590.297 279.097 624.693 282.75 640.267 271.077C640.52 270.885 640.832 271.064 640.952 271.479C641.072 271.893 640.96 272.386 640.702 272.578C631.788 279.255 616.891 281 603.757 281Z" fill="#FFB74D"/>
  <path d="M608.97 210C603.525 210 601.115 203.521 601.083 203.424C600.928 202.995 600.996 202.424 601.234 202.151C601.473 201.873 601.787 201.99 601.944 202.419C602.123 202.912 606.42 214.283 617.242 203.751C617.491 203.517 617.803 203.678 617.938 204.126C618.074 204.575 617.979 205.141 617.73 205.38C614.215 208.8 611.31 210 608.97 210Z" fill="#FFCA28"/>
  <path d="M626.947 130.679C629.884 128.466 633.851 128.266 636.458 131.132C637.818 132.622 638.69 134.768 639.952 136.406C642.656 139.924 646.861 140.81 649.452 144.476C651.453 147.308 652.167 151.441 651.968 155.329C651.766 159.222 650.747 162.943 649.662 166.561C648.115 171.728 646.329 176.977 643.237 180.702C642.058 182.122 640.674 183.308 639.124 183.786C637.577 184.265 635.85 183.961 634.59 182.663C633.261 181.292 632.605 179.001 632.489 176.762C632.376 174.519 632.73 172.292 633.084 170.097C633.929 170.79 635.072 170.779 635.908 170.064C636.741 169.349 637.228 167.966 637.112 166.65C636.912 164.411 635.266 163.006 633.79 161.924C631.346 160.13 628.902 158.336 626.458 156.545C625.026 155.493 623.565 154.41 622.488 152.768C620.689 150.025 619.244 143.994 620.434 140.532C621.755 136.688 624.185 132.759 626.947 130.679Z" fill="#FBB81D"/>
  <path d="M598 149.02C598 149.02 597.848 127.219 618.409 132.965C621.889 133.936 624.932 136.407 627.167 140.05C630.514 145.501 632.659 168.42 623.094 174.781C611.1 182.754 598 149.02 598 149.02Z" fill="#FBC343"/>
  <path d="M619 168L618.544 189.71C618.422 195.219 615.221 199.69 611.175 199.982C611.04 200 610.907 200 610.772 200C606.243 200 602.639 194.711 603.029 188.487L603.055 188.14L604.099 171.648L605.427 171.319L619 168Z" fill="#E28B6D"/>
  <path d="M613 175.482C613 175.482 610.316 183.927 603 188L604.136 171.332L605.58 171L613 175.482Z" fill="#102048"/>
  <path d="M598.198 149.064C598.198 149.064 593.165 178.484 603.731 179.895C614.297 181.311 618.657 167.893 618.657 167.893L620 151.183L613.459 138L603.06 142.473L598.198 149.064Z" fill="#E28B6D"/>
  <path d="M598 148.944C598 148.944 608.118 141.883 611.792 151.332C614.352 157.919 618.25 161.541 622.092 159.369C625.932 157.198 622.788 141.56 622.788 141.56L608.474 137L599.92 143.079L598 148.944Z" fill="#FBC343"/>
  <path d="M623.189 163.586C621.766 166.576 618.962 167.84 616.922 166.413C614.886 164.987 614.388 161.408 615.812 158.417C617.235 155.427 620.039 154.159 622.076 155.586C624.112 157.013 624.613 160.595 623.189 163.586Z" fill="#E28B6D"/>
  <path d="M618.393 163H618.365C618.147 162.983 617.985 162.773 618.001 162.529C618.101 160.961 618.984 158 621.605 158C621.823 158 622 158.196 622 158.44C622 158.684 621.823 158.883 621.605 158.883C619.062 158.883 618.795 162.441 618.785 162.591C618.77 162.825 618.599 163 618.393 163Z" fill="#102048"/>
  <path d="M600 158.998C600 159.55 599.551 160 599 160C598.449 160 598 159.55 598 158.998C598 158.447 598.449 158 599 158C599.551 158 600 158.447 600 158.998Z" fill="#102048"/>
  <path d="M607 158.999C607 159.551 606.33 160 605.5 160C604.67 160 604 159.551 604 158.999C604 158.449 604.67 158 605.5 158C606.33 158 607 158.449 607 158.999Z" fill="#102048"/>
  <path d="M601.762 167C601.422 167 601.191 166.656 601.076 165.977C600.771 164.2 601.475 160.857 601.618 160.209C601.668 159.987 601.763 159.932 601.833 160.092C601.903 160.252 601.918 160.561 601.87 160.779C601.496 162.466 601.195 164.63 601.344 165.504C601.408 165.879 601.577 166.047 601.838 166.008L601.847 166.004C601.928 166.004 601.996 166.211 602 166.473C602.005 166.746 601.94 166.977 601.855 166.992C601.822 167 601.792 167 601.762 167Z" fill="#102048"/>
  <path d="M610.999 169C609.341 169 608 166.985 608 164.5C608 162.015 609.341 160 610.999 160C612.656 160 614 162.015 614 164.5C614 166.985 612.656 169 610.999 169Z" fill="#E67968"/>
  <path d="M602.829 171C601.889 171 601.238 170.48 601.188 170.436C601.017 170.3 600.951 169.963 601.039 169.697C601.125 169.425 601.337 169.316 601.508 169.456C601.588 169.517 603.467 170.987 605.417 168.144C605.558 167.938 605.778 167.956 605.908 168.179C606.038 168.402 606.029 168.752 605.889 168.957C604.782 170.567 603.685 171 602.829 171Z" fill="#102048"/>
  <path d="M601.648 156.843C600.839 156.655 600.107 156.4 599.424 156.408C599.084 156.382 598.767 156.43 598.447 156.528C598.107 156.588 597.801 156.79 597.4 156.963L597.359 156.981C597.223 157.038 597.07 156.963 597.019 156.816C596.992 156.741 596.995 156.659 597.022 156.592C597.216 156.116 597.539 155.67 597.992 155.392C598.437 155.119 598.968 154.98 599.471 155.002C600.475 155.1 601.363 155.561 601.948 156.397C602.033 156.52 602.012 156.7 601.9 156.798C601.835 156.854 601.757 156.869 601.686 156.854L601.648 156.843Z" fill="#102048"/>
  <path d="M603.027 156.494C603.51 155.138 604.392 154.189 605.441 154.01C605.959 153.952 606.502 154.14 606.938 154.552C607.385 154.95 607.724 155.541 607.97 156.194C608.03 156.355 607.997 156.565 607.898 156.664C607.837 156.722 607.768 156.726 607.708 156.686L607.685 156.668C607.277 156.382 606.935 156.051 606.569 155.903C606.215 155.697 605.865 155.639 605.512 155.688C604.801 155.711 604.073 156.297 603.331 156.937L603.306 156.959C603.204 157.049 603.077 156.986 603.025 156.82C602.989 156.713 602.994 156.588 603.027 156.494Z" fill="#102048"/>
</svg>
