<svg width="32" height="33" viewBox="0 0 32 33" fill="none" xmlns="http://www.w3.org/2000/svg">
<path d="M22.2041 2.69388C24.1093 2.69388 25.9365 3.47438 27.2837 4.86368C28.6309 6.25298 29.3878 8.13727 29.3878 10.102V22.898C29.3878 24.8627 28.6309 26.747 27.2837 28.1363C25.9365 29.5256 24.1093 30.3061 22.2041 30.3061H9.79592C7.89069 30.3061 6.06349 29.5256 4.71629 28.1363C3.36909 26.747 2.61224 24.8627 2.61224 22.898V10.102C2.61224 8.13727 3.36909 6.25298 4.71629 4.86368C6.06349 3.47438 7.89069 2.69388 9.79592 2.69388H22.2041ZM22.2041 0H9.79592C7.20026 0.00799439 4.71313 1.07488 2.87772 2.96765C1.04231 4.86042 0.00775213 7.42527 0 10.102V22.898C0.00775213 25.5747 1.04231 28.1396 2.87772 30.0323C4.71313 31.9251 7.20026 32.992 9.79592 33H22.2041C24.7997 32.992 27.2869 31.9251 29.1223 30.0323C30.9577 28.1396 31.9922 25.5747 32 22.898V10.102C31.9922 7.42527 30.9577 4.86042 29.1223 2.96765C27.2869 1.07488 24.7997 0.00799439 22.2041 0Z" fill="#FCFCF9"/>
<path d="M26.5 4C26.2033 4 25.9133 4.1173 25.6666 4.33706C25.42 4.55682 25.2277 4.86918 25.1142 5.23463C25.0006 5.60008 24.9709 6.00222 25.0288 6.39018C25.0867 6.77814 25.2296 7.13451 25.4393 7.41421C25.6491 7.69392 25.9164 7.8844 26.2074 7.96157C26.4983 8.03874 26.7999 7.99913 27.074 7.84776C27.3481 7.69638 27.5824 7.44004 27.7472 7.11114C27.912 6.78224 28 6.39556 28 6C28 5.73736 27.9612 5.47728 27.8858 5.23463C27.8104 4.99198 27.6999 4.7715 27.5607 4.58579C27.4214 4.40007 27.256 4.25275 27.074 4.15224C26.892 4.05173 26.697 4 26.5 4Z" fill="#FCFCF9"/>
<path d="M15.9825 9.95952C17.2083 9.95879 18.4067 10.3419 19.4263 11.0602C20.4458 11.7786 21.2405 12.8001 21.7099 13.9954C22.1793 15.1906 22.3023 16.506 22.0634 17.7751C21.8244 19.0442 21.2342 20.2099 20.3674 21.1248C19.5006 22.0398 18.3962 22.6628 17.194 22.915C15.9917 23.1673 14.7455 23.0374 13.6132 22.5419C12.4808 22.0464 11.5131 21.2076 10.8325 20.1314C10.1519 19.0553 9.78903 17.7902 9.78972 16.4963C9.7925 14.7636 10.4458 13.1026 11.6066 11.8773C12.7674 10.6521 14.3409 9.96245 15.9825 9.95952ZM15.9825 7.00002C14.203 7.00368 12.4646 7.56404 10.9868 8.6103C9.50896 9.65655 8.35813 11.1417 7.67973 12.8782C7.00134 14.6146 6.82581 16.5243 7.17534 18.366C7.52486 20.2077 8.38376 21.8987 9.64348 23.2253C10.9032 24.5519 12.5072 25.4546 14.2528 25.8193C15.9984 26.1839 17.8072 25.9942 19.4506 25.274C21.0941 24.5539 22.4984 23.3357 23.4861 21.7733C24.4739 20.211 25.0007 18.3746 25 16.4963C24.9995 15.2475 24.7658 14.0111 24.3122 12.8577C23.8586 11.7043 23.1941 10.6567 22.3565 9.77465C21.519 8.89264 20.5249 8.19359 19.4312 7.71749C18.3375 7.24139 17.1656 6.99759 15.9825 7.00002Z" fill="#FCFCF9"/>
</svg>
