<svg width="29" height="31" viewBox="0 0 29 31" fill="none" xmlns="http://www.w3.org/2000/svg">
<path d="M26.856 0.375H2.14222C0.959332 0.375 0 1.3577 0 2.56883V28.8068C0 30.0173 0.959332 31 2.14222 31H26.856C28.0407 31 29 30.0167 29 28.8068V2.56883C29 1.35708 28.0401 0.375 26.856 0.375ZM8.79007 26.012H4.41V12.1834H8.79007V26.012ZM6.60032 10.2944H6.57099C5.10177 10.2944 4.15124 9.23222 4.15124 7.90533C4.15124 6.54889 5.13111 5.51632 6.62907 5.51632C8.12763 5.51632 9.04941 6.54889 9.07874 7.90533C9.07874 9.23222 8.12704 10.2944 6.60032 10.2944ZM24.5847 26.012H20.2047V18.6122C20.2047 16.7539 19.571 15.4855 17.9862 15.4855C16.7763 15.4855 16.0558 16.3408 15.7383 17.1671C15.6227 17.462 15.5946 17.8746 15.5946 18.2883V26.0114H11.2145C11.2145 26.0114 11.272 13.4789 11.2145 12.1828H15.5946V14.1402C16.1766 13.1981 17.2175 11.8565 19.5428 11.8565C22.4243 11.8565 24.5853 13.8335 24.5853 18.0814L24.5847 26.012Z" fill="#FCFCF9"/>
</svg>
