<svg width="60" height="60" viewBox="0 0 60 60" fill="none" xmlns="http://www.w3.org/2000/svg">
<mask id="mask0_799_12369" style="mask-type:luminance" maskUnits="userSpaceOnUse" x="0" y="0" width="60" height="60">
<path d="M60 30C60 46.5684 46.5687 60 29.9999 60C13.4315 60 0 46.5684 0 30C0 13.4316 13.4315 0 29.9999 0C46.5687 0 60 13.4316 60 30Z" fill="white"/>
</mask>
<g mask="url(#mask0_799_12369)">
<path d="M60 30C60 46.5684 46.5687 60 29.9999 60C13.4315 60 0 46.5684 0 30C0 13.4316 13.4315 0 29.9999 0C46.5687 0 60 13.4316 60 30Z" fill="#E1EDD4"/>
<path d="M26.4816 16.3537C26.0348 15.6658 25.4654 14.6782 24.8105 14.1838C24.156 13.6894 23.3016 13.4006 22.5032 13.5911C21.7544 13.7697 21.1448 14.3506 20.7932 15.0356C20.442 15.7208 20.3214 16.502 20.2913 17.2713C20.2349 18.6989 20.4754 20.1377 20.9928 21.4693C20.2052 20.3359 18.4301 20.1465 17.3102 20.953C16.1903 21.7595 15.7755 23.3411 16.1727 24.6626C16.5699 25.9845 17.6493 28.3945 20.3136 28.3945C20.3136 28.3945 38.7288 28.3945 39.5292 28.3945C41.4205 28.3945 42.2784 25.5883 42.3054 24.8899C42.4236 21.8392 40.7383 21.4133 39.6251 21.1661C40.6103 20.2788 41.4752 19.2586 42.1889 18.141C42.7684 17.2342 43.2632 16.1653 43.0389 15.1126C42.8495 14.2206 42.1558 13.4955 41.3435 13.0808C40.5313 12.6664 39.6076 12.5249 38.6981 12.4607C34.3312 12.1537 29.866 13.5766 26.4816 16.3537Z" fill="#363E44"/>
<path d="M50.1789 56.4801C50.1789 63.2827 9.82031 63.2827 9.82031 56.4801C9.82031 49.6775 25.7461 47.0324 29.9995 47.0324C34.2532 47.0324 50.1789 49.6775 50.1789 56.4801Z" fill="#2A6F2C"/>
<path d="M30.001 50.5293C28.0266 50.5293 26.4258 48.9288 26.4258 46.9541V38.809H33.5762V46.9541C33.5762 48.9288 31.9757 50.5293 30.001 50.5293Z" fill="#E2A18D"/>
<path d="M33.5736 44.8629V41.7446H26.4238V44.8629C27.5282 45.3121 28.7373 45.5586 30.0004 45.5586C31.2635 45.5586 32.4692 45.3121 33.5736 44.8629Z" fill="#E2A18D"/>
<path d="M29.9995 43.3086C24.7369 43.3086 20.4707 39.0424 20.4707 33.7798V26.216C20.4707 20.9531 24.7369 16.6869 29.9995 16.6869C35.2623 16.6869 39.5286 20.9531 39.5286 26.216V33.7798C39.5286 39.0424 35.2623 43.3086 29.9995 43.3086Z" fill="#E2A18D"/>
<path d="M22.1168 32.6574C22.1168 34.0968 20.95 35.2637 19.5106 35.2637C18.0712 35.2637 16.9043 34.0968 16.9043 32.6574C16.9043 31.218 18.0712 30.0508 19.5106 30.0508C20.95 30.0508 22.1168 31.218 22.1168 32.6574Z" fill="#E2A18D"/>
<path d="M17.6493 32.8262C17.5561 32.8262 17.4805 32.7505 17.4805 32.6573C17.4805 31.5377 18.3913 30.6269 19.5109 30.6269C19.6045 30.6269 19.6798 30.7025 19.6798 30.7957C19.6798 30.8889 19.6045 30.9646 19.5109 30.9646C18.5774 30.9646 17.8182 31.7238 17.8182 32.6573C17.8182 32.7505 17.7429 32.8262 17.6493 32.8262Z" fill="#363E44"/>
<path d="M37.8828 32.6574C37.8828 34.0968 39.0497 35.2637 40.4894 35.2637C41.9288 35.2637 43.0957 34.0968 43.0957 32.6574C43.0957 31.218 41.9288 30.0508 40.4894 30.0508C39.0497 30.0508 37.8828 31.218 37.8828 32.6574Z" fill="#E2A18D"/>
<path d="M42.3504 32.8262C42.2572 32.8262 42.1816 32.7505 42.1816 32.6573C42.1816 31.7238 41.4223 30.9646 40.4892 30.9646C40.3956 30.9646 40.3203 30.8889 40.3203 30.7957C40.3203 30.7025 40.3956 30.6269 40.4892 30.6269C41.6084 30.6269 42.5193 31.5377 42.5193 32.6573C42.5193 32.7505 42.4436 32.8262 42.3504 32.8262Z" fill="#363E44"/>
<path d="M34.7354 22.8824C34.6064 24.1283 34.8421 25.4093 35.4064 26.5275C35.7391 27.1874 36.6398 27.872 37.3788 27.872C38.7463 27.872 39.8108 26.7372 39.8108 25.7751C39.8108 25.7751 39.5295 16.4263 29.998 16.4263C21.8023 16.4263 20.1855 22.4575 20.1855 28.3938C20.1855 28.6924 21.1383 28.8906 22.1008 28.8906C30.0004 28.8906 30.4384 24.1222 30.5049 23.1924C30.5049 23.1924 30.7397 25.3546 32.6668 25.3546C34.3264 25.3546 34.7354 22.8824 34.7354 22.8824Z" fill="#363E44"/>
</g>
</svg>
