<svg width="31" height="31" viewBox="0 0 31 31" fill="none" xmlns="http://www.w3.org/2000/svg">
<path d="M9.74889 31C21.447 31 27.8454 19.0724 27.8454 8.72871C27.8454 8.38997 27.8454 8.05272 27.8269 7.71695C29.0716 6.60885 30.1461 5.23696 31 3.6653C29.8393 4.2983 28.6078 4.71335 27.347 4.8968C28.6744 3.91887 29.6685 2.37955 30.1431 0.567354C28.8947 1.47904 27.5287 2.12165 26.1045 2.46733C24.9019 0.893504 23.2223 0 21.467 0C17.9746 0 15.1008 3.53676 15.1008 7.83476C15.1008 8.43103 15.1562 9.02543 15.2656 9.6062C10.1544 9.29093 5.38558 6.31556 2.15759 1.42807C0.478986 4.98435 1.34753 9.59308 4.12669 11.877C3.11465 11.8401 2.12435 11.504 1.24 10.8972V10.9964C1.24085 14.7083 3.3862 17.9345 6.34259 18.6695C5.40629 18.9837 4.42368 19.0296 3.47079 18.8038C4.30192 21.9844 6.6986 24.1768 9.41286 24.2396C7.16112 26.4174 4.37796 27.6004 1.51404 27.5969C1.00798 27.5957 0.502418 27.558 0 27.484C2.90831 29.7809 6.29324 30.9996 9.74889 30.9939" fill="#FCFCF9"/>
</svg>
